/* XPM */
static char *cabf8db0bae94f91ed53a84c85bcca42KGEhIwAlQAhm9Xc8[] = {
/* columns rows colors chars-per-pixel */
"32 32 7 1 ",
"  c None",
". c black",
"X c #3A4466",
"o c #FEAE34",
"O c #5A6988",
"+ c #C0CBDC",
"@ c white",
/* pixels */
"   ....                         ",
"   ....                         ",
"   ..OO..                       ",
"   ..OO..                       ",
" ....OOOO..                .... ",
" ....OOOO..                .... ",
" ..OOXX@@OO..            ..XX.. ",
" ..OOXX@@OO..            ..XX.. ",
"   ..OO@@@@OO..        ..XXXX.. ",
"   ..OO@@@@OO..        ..XXXX.. ",
"   ..++@@++@@OO..    ..OO++XXXX ",
"   ..++@@++@@OO..    ..OO++XXXX ",
"     ....++++OO..  ..++++++.... ",
"     ....++++OO..  ..++++++.... ",
"       ..++++OO..  ..++++..     ",
"       ..++++OO..  ..++++..     ",
"       ....++OO..  ........     ",
"       ....++OO..  ........     ",
"       ..++++@@......++@@++.....",
"       ..++++@@......++@@++.....",
"         ..++@@++++@@@@..@@oooo.",
"         ..++@@++++@@@@..@@oooo.",
" ........XXXX@@@@@@@@@@@@++.....",
" ........XXXX@@@@@@@@@@@@++.....",
".XXXXXXXXXX++@@@@@@++......     ",
".XXXXXXXXXX++@@@@@@++......     ",
".......oooooo........           ",
".......oooooo........           ",
"     ........                   ",
"     ........                   ",
"                                ",
"                                "
};
