/* XPM */
static char *d28cfdff3a9c46709cdaee098ba9a325bCNAwjE3yoYv12cR[] = {
/* columns rows colors chars-per-pixel */
"32 32 10 1 ",
"  c black",
". c None",
"X c #7E2553",
"o c None",
"O c #AB5236",
"+ c #FFA300",
"@ c #FFFF27",
"# c #FFCCAA",
"$ c #C2C3C7",
"% c #FFF1E8",
/* pixels */
"...............................o",
"...............................o",
".....+++OO##OO#OO##OO#++++.....o",
".....+++OO##OO#OO##OO#++++.....o",
"...@@%%%@@@@%%@@@@@@@@%%%%@@...o",
"...@@%%%@@@@%%@@@@@@@@%%%%@@...o",
".  ++OXXXXXX@@XXX@@XXXXXOO++  .o",
".  OOX      OO+++OO     XXOO  .o",
".  OOX      OO+++OO     XXOO  .o",
".  XX                     XX  .o",
".  XX                     XX  .o",
".  XX                     XX  .o",
".  XX                     XX  .o",
".  OO XXXX  XXXXXXX  XXX  OO  .o",
".  OO XXXX  XXXXXXX  XXX  OO  .o",
".  %%%@@@@@@%%%%%%%@@@%%%%@@  .o",
".  %%         #$$         @@  .o",
".  %%         #$$         @@  .o",
".XX@@ XXOOXX  $oo  OOXOOXX@@XX.o",
".XX@@ XXOOXX  $oo  OOXOOXX@@XX.o",
".XX@@ XXOOXX       OOXOOXX@@XX.o",
".XX@@ XXOOXX       OOXOOXX@@XX.o",
".XX@@ XXOOXXOOXOOXXOOXOOXX@@XX.o",
".XX@@ XXOOXXOOXOOXXOOXOOXX@@XX.o",
".XX@@ XXOOXXOOXOOXXOOXOOXX@@XX.o",
".XX%% XXOOXXOOXOOXXOOXOOXX%%XX.o",
".XX%% XXOOXXOOXOOXXOOXOOXX%%XX.o",
".  %%%@@@@@@@@@@@@@@@@@@%%%%  .o",
".  %%%@@@@@@@@@@@@@@@@@@%%%%  .o",
".     XXXXXXXXXXXXXXXXXX      .o",
".     XXXXXXXXXXXXXXXXXX      .o",
"...............................o"
};
