/* XPM */
static char *bdbc0168549e421fb6efb39f613907eelqFvBTRJ2uW2ECU9[] = {
/* columns rows colors chars-per-pixel */
"32 32 8 1 ",
"  c black",
". c None",
"X c #7E2553",
"o c #AB5236",
"O c #FFA300",
"+ c #FFFF27",
"@ c #FFCCAA",
"# c #FFF1E8",
/* pixels */
"................................",
"................................",
"...                         ....",
"...                         ....",
".. XXOOOO XX  XX  X  XXOOOXX  ..",
".. XXOOOO XX  XX  X  XXOOOXX  ..",
".. oo@@@@XooXXooXXo  oo@@@oo  ..",
".. oo++++XOOXXOOXXO  OO+++oo  ..",
".. oo++++XOOXXOOXXO  OO+++oo  ..",
".. oo####o@@oo@@oo@XX@@###oo  ..",
".. oo####o@@oo@@oo@XX@@###oo  ..",
".. ++####++++++++++++++###++  ..",
".. ++####++++++++++++++###++  ..",
".. oo  XXX  +++++++  XXXX oo  ..",
".. oo  XXX  +++++++  XXXX oo  ..",
".. ####+++++####+++++++###++  ..",
".. ##       ##    +       ++  ..",
".. ##       ##    +       ++  ..",
"..X++  XXoXX++    +  XXooX++XX..",
"..X++  XXoXX++    +  XXooX++XX..",
"..X++  XXoXXOO##++O  XXooX++XX..",
"..X++  XXoXXOO##++O  XXooX++XX..",
"..X++  XXoXX         XXooX++XX..",
"..X++  XXoXXooXXooXooXXooX++XX..",
"..X++  XXoXXooXXooXooXXooX++XX..",
"..X##  XXoXXooXXooXooXXooX##XX..",
"..X##  XXoXXooXXooXooXXooX##XX..",
".. ####++++++++++++++++++###  ..",
".. ####++++++++++++++++++###  ..",
"..     XXXXXXXXXXXXXXXXXX     ..",
"..     XXXXXXXXXXXXXXXXXX     ..",
"................................"
};
