/* XPM */
static char *_6357ded818f4fdc8ba5d22ae59cb019WpW0XMPmU407cxHQ[] = {
/* columns rows colors chars-per-pixel */
"32 32 7 1 ",
"  c None",
". c #2C354D",
"X c #404973",
"o c #686F99",
"O c #A3A7C2",
"+ c #92E8C0",
"@ c #F5FFE8",
/* pixels */
"           ..                   ",
"           ..                   ",
"         ..OO......             ",
"         ..OO......             ",
"       ..OOOOOOOOOO..           ",
"       ..OOOOOOOOOO..           ",
"     ..ooOOOOOOooOOOO..         ",
"     ..ooOOOOOOooOOOO..         ",
"     ..ooooOOooooooOOOO..       ",
"     ..ooooOOooooooOOOO..       ",
"   ..ooooOOOOOOooooOOOOOO..     ",
"   ..ooooOOOOOOooooOOOOOO..     ",
" ..ooooOOooooooooOOOOOOOOOO..   ",
" ..ooooOOooooooooOOOOOOOOOO..   ",
" ..ooOOOOooooOOOOOOOOOOXXXX..   ",
" ..ooOOOOooooOOOOOOOOOOXXXX..   ",
"+@@@@ooOOOOooooOOOOOOXXXXXX..   ",
"+@@@@ooOOOOooooOOOOOOXXXXXX..   ",
"+++@@ooooOOOOooooooOOXXXXoo..   ",
"+++@@ooooOOOOooooooOOXXXXoo..   ",
" ++++@@XX@@ooOOooooXXXXoooo..   ",
" ++++@@XX@@ooOOooooXXXXoooo..   ",
"   ++++@@@@@@XXooooXXooXXXX..++ ",
"   ++++@@@@@@XXooooXXooXXXX..++ ",
" ++++  ++++@@@@XXooXXXX@@XXXX@@+",
" ++++  ++++@@@@XXooXXXX@@XXXX@@+",
"         ++++++@@XXXX@@XX@@@@++ ",
"         ++++++@@XXXX@@XX@@@@++ ",
"     ++++    ++++@@@@@@++++++   ",
"     ++++    ++++@@@@@@++++++   ",
"                 ++++++         ",
"                 ++++++         "
};
