/* XPM */
static char *_cb24dd07e304a4beaf45865a34a0068MMW7ygexoDusA8Z3[] = {
/* columns rows colors chars-per-pixel */
"32 32 3 1 ",
"  c #4FA4B8",
". c #92E8C0",
"X c #F5FFE8",
/* pixels */
"     ..................         ",
"     ..................         ",
"         ........               ",
"         ........               ",
"                   XXXXXXXX     ",
"                   XXXXXXXX     ",
"               XXXXXX....XXXX  .",
"               XXXXXX....XXXX  .",
"XXXXX      XXXXXXXX............ ",
"XXXXX      XXXXXXXX............ ",
".XXXXXXXXXXXXXXXX.............. ",
".XXXXXXXXXXXXXXXX.............. ",
"...XXXXXXXXXX..........        X",
"...XXXXXXXXXX..........        X",
" ......XXXX........            .",
" ......XXXX........            .",
"   ............                 ",
"   ............                 ",
"     ......                     ",
"     ......                     ",
"                                ",
"                                ",
"X                          XXXXX",
"X                          XXXXX",
"XXXXX                  XXXXXXXX ",
"XXXXX                  XXXXXXXX ",
".XXXXXXXX            XXXXXX.... ",
".XXXXXXXX            XXXXXX.... ",
".....XXXXXX....    XXXXXX....   ",
".....XXXXXX....    XXXXXX....   ",
" ..........................    X",
" ..........................    X"
};
